<svg width="51" height="52" viewBox="0 0 51 52" fill="none" xmlns="http://www.w3.org/2000/svg">
<g clip-path="url(#clip0)">
<path d="M0.977783 0.0664062V51.4442H50.8444V0.0664062H0.977783ZM23.114 13.8046C24.5259 13.7895 25.907 13.9508 26.5807 13.9708C29.0782 14.0448 29.5193 15.3463 29.4873 16.4167C29.4406 17.9845 28.4616 24.6162 30.2757 25.263C32.919 23.8067 34.6916 19.2835 35.9824 16.4167C36.6354 14.9667 36.5321 14.8946 38.0368 14.8927L44.0145 14.8833C45.454 14.8814 45.3978 14.8294 45.859 15.4352C46.9315 16.8442 42.4744 22.7049 41.0348 24.3254C38.3782 27.3159 39.9282 28.4739 40.3561 28.8849C42.3387 30.7894 44.2544 32.7644 45.445 34.5858C46.3916 36.0339 46.0006 37.3822 44.7967 37.4332L38.3868 37.706C36.2598 37.7961 32.9524 33.8676 32.4244 33.0116C31.9975 32.3056 29.9399 31.4208 29.7461 33.2248L29.4751 35.7429C29.2784 37.5429 27.9885 37.5009 26.9703 37.5459C19.9196 37.8585 17.5185 35.0928 13.9679 31.0108C11.3656 27.2191 8.88231 23.4057 6.82453 18.8374C6.20859 17.47 5.88234 16.4669 5.79881 15.4037C6.83421 14.5699 10.4685 14.9291 12.9087 14.8737C13.5761 14.8586 14.0265 15.2526 14.3788 16.0371C15.7535 19.099 17.2527 22.1057 19.2364 24.7642C20.1003 25.584 20.864 25.8855 21.2452 24.2186C21.4665 24.1976 21.4488 21.4372 21.4613 19.3549C21.4699 17.9251 21.3069 16.2105 18.9564 15.4194C19.4319 14.1354 21.2987 13.824 23.114 13.8046Z" fill="#A7A2A7"/>
</g>
<defs>
<clipPath id="clip0">
<rect width="49.8667" height="51.3778" fill="white" transform="translate(0.977783 0.0664062)"/>
</clipPath>
</defs>
</svg>
