<svg width="69" height="68" viewBox="0 0 69 68" fill="none" xmlns="http://www.w3.org/2000/svg">
<path d="M34.9661 19.6202C31.2255 19.6239 27.6392 21.1113 24.9939 23.756C22.3487 26.4007 20.8606 29.9868 20.8561 33.7273C20.8532 36.3907 21.6012 38.986 23.0122 41.2328L23.3466 41.7655L21.9214 46.9703L27.2622 45.5707L27.7751 45.8767C29.9497 47.1638 32.4306 47.842 34.9576 47.8402H34.9604C38.6997 47.8349 42.2845 46.3473 44.9289 43.7035C47.5732 41.0596 49.0616 37.4752 49.0675 33.7358C49.074 31.8823 48.7127 30.0459 48.0046 28.333C47.2965 26.6201 46.2556 25.0647 44.9422 23.7568C43.6356 22.4417 42.0811 21.3989 40.3686 20.6889C38.6562 19.9788 36.8199 19.6155 34.9661 19.6202ZM43.262 39.7878C42.9079 40.7795 41.2136 41.6805 40.4004 41.8023C39.5089 41.956 38.5939 41.8988 37.7285 41.6352C36.9076 41.3809 36.1008 41.083 35.3117 40.7427C31.0561 38.9067 28.2794 34.6255 28.0641 34.3393C27.8544 34.056 26.3357 32.0387 26.3357 29.9533C26.3357 27.8652 27.4294 26.8395 27.8176 26.4145C27.9601 26.2535 28.1343 26.1235 28.3293 26.0329C28.5243 25.9422 28.7359 25.8927 28.9509 25.8875C29.2342 25.8875 29.5147 25.8903 29.7641 25.9017C30.0247 25.913 30.3732 25.8025 30.7161 26.6298C31.0702 27.4798 31.9202 29.5652 32.0251 29.7777C32.1299 29.9873 32.2007 30.2367 32.0619 30.52C31.9202 30.8062 31.8522 30.979 31.6369 31.2283C31.4272 31.4777 31.1921 31.7808 31.0022 31.9735C30.7897 32.1832 30.5687 32.4127 30.8152 32.8377C31.0646 33.2598 31.9146 34.651 33.1726 35.7758C34.7932 37.2208 36.1617 37.6657 36.5839 37.881C37.0089 38.0907 37.2554 38.0595 37.5047 37.7733C37.7512 37.4872 38.5644 36.5352 38.8477 36.113C39.1311 35.688 39.4116 35.7588 39.8026 35.8977C40.1907 36.0422 42.2761 37.065 42.6982 37.2775C43.1175 37.4872 43.4037 37.5948 43.5114 37.7733C43.6134 37.949 43.6134 38.7962 43.262 39.7878Z" fill="#A7A2A7"/>
<path d="M57.5111 8.5H12.1778C11.4264 8.5 10.7057 8.79851 10.1743 9.32986C9.64299 9.86122 9.34448 10.5819 9.34448 11.3333V56.6667C9.34448 57.4181 9.64299 58.1388 10.1743 58.6701C10.7057 59.2015 11.4264 59.5 12.1778 59.5H57.5111C58.2626 59.5 58.9832 59.2015 59.5146 58.6701C60.046 58.1388 60.3445 57.4181 60.3445 56.6667V11.3333C60.3445 10.5819 60.046 9.86122 59.5146 9.32986C58.9832 8.79851 58.2626 8.5 57.5111 8.5ZM34.9578 50.7053H34.9521C32.119 50.7056 29.3309 49.9955 26.8431 48.6398L17.8445 51L20.2528 42.2053C18.7653 39.6248 17.9829 36.6983 17.9844 33.7197C17.9858 30.7411 18.771 27.8153 20.2611 25.2363C21.7512 22.6572 23.8937 20.5156 26.4734 19.0266C29.0531 17.5376 31.9792 16.7537 34.9578 16.7535C37.1891 16.7473 39.3995 17.1842 41.4607 18.0387C43.522 18.8933 45.393 20.1485 46.9655 21.7317C48.5452 23.3052 49.7971 25.1764 50.6487 27.2371C51.5003 29.2977 51.9347 31.5068 51.9266 33.7365C51.9199 38.2348 50.1299 42.547 46.9491 45.7278C43.7683 48.9086 39.4561 50.6986 34.9578 50.7053Z" fill="#A7A2A7"/>
</svg>
