<svg width="60" height="61" viewBox="0 0 60 61" fill="none" xmlns="http://www.w3.org/2000/svg">
<path d="M19.4758 5.45703H40.4498C48.4399 5.45703 54.9319 11.949 54.9319 19.9391V40.913C54.9319 44.7539 53.4061 48.4375 50.6902 51.1534C47.9743 53.8693 44.2907 55.3951 40.4498 55.3951H19.4758C11.4858 55.3951 4.9938 48.9031 4.9938 40.913V19.9391C4.9938 16.0982 6.51959 12.4146 9.23549 9.69872C11.9514 6.98281 15.635 5.45703 19.4758 5.45703ZM18.9765 10.4508C16.5925 10.4508 14.3061 11.3979 12.6204 13.0836C10.9346 14.7693 9.98761 17.0557 9.98761 19.4397V41.4124C9.98761 46.3813 14.0076 50.4013 18.9765 50.4013H40.9492C43.3332 50.4013 45.6195 49.4542 47.3053 47.7685C48.991 46.0828 49.938 43.7964 49.938 41.4124V19.4397C49.938 14.4708 45.918 10.4508 40.9492 10.4508H18.9765ZM43.0716 14.1962C43.8993 14.1962 44.6932 14.525 45.2785 15.1103C45.8639 15.6957 46.1927 16.4895 46.1927 17.3173C46.1927 18.1451 45.8639 18.939 45.2785 19.5243C44.6932 20.1096 43.8993 20.4384 43.0716 20.4384C42.2438 20.4384 41.4499 20.1096 40.8646 19.5243C40.2793 18.939 39.9504 18.1451 39.9504 17.3173C39.9504 16.4895 40.2793 15.6957 40.8646 15.1103C41.4499 14.525 42.2438 14.1962 43.0716 14.1962ZM29.9628 17.9415C33.2739 17.9415 36.4494 19.2569 38.7907 21.5982C41.132 23.9395 42.4473 27.115 42.4473 30.4261C42.4473 33.7372 41.132 36.9126 38.7907 39.2539C36.4494 41.5952 33.2739 42.9106 29.9628 42.9106C26.6517 42.9106 23.4762 41.5952 21.1349 39.2539C18.7936 36.9126 17.4783 33.7372 17.4783 30.4261C17.4783 27.115 18.7936 23.9395 21.1349 21.5982C23.4762 19.2569 26.6517 17.9415 29.9628 17.9415ZM29.9628 22.9353C27.9762 22.9353 26.0709 23.7245 24.6661 25.1293C23.2613 26.5341 22.4721 28.4394 22.4721 30.4261C22.4721 32.4127 23.2613 34.318 24.6661 35.7228C26.0709 37.1276 27.9762 37.9168 29.9628 37.9168C31.9495 37.9168 33.8548 37.1276 35.2596 35.7228C36.6643 34.318 37.4535 32.4127 37.4535 30.4261C37.4535 28.4394 36.6643 26.5341 35.2596 25.1293C33.8548 23.7245 31.9495 22.9353 29.9628 22.9353Z" fill="#626262"/>
</svg>
