<svg width="65" height="67" viewBox="0 0 65 67" fill="none" xmlns="http://www.w3.org/2000/svg">
<path d="M32.4888 25.1002C27.8312 25.1002 24.0303 28.9895 24.0303 33.7554C24.0303 38.5213 27.8312 42.4107 32.4888 42.4107C37.1464 42.4107 40.9474 38.5213 40.9474 33.7554C40.9474 28.9895 37.1464 25.1002 32.4888 25.1002ZM57.8581 33.7554C57.8581 30.1713 57.8898 26.6196 57.6931 23.0419C57.4964 18.8864 56.5699 15.1983 53.6003 12.1596C50.6242 9.11431 47.0263 8.17282 42.9652 7.97153C39.4625 7.77025 35.9915 7.80271 32.4952 7.80271C28.9925 7.80271 25.5215 7.77025 22.0251 7.97153C17.964 8.17282 14.3598 9.1208 11.3901 12.1596C8.41406 15.2048 7.49397 18.8864 7.29726 23.0419C7.10055 26.6261 7.13227 30.1778 7.13227 33.7554C7.13227 37.3331 7.10055 40.8913 7.29726 44.469C7.49397 48.6245 8.42041 52.3126 11.3901 55.3513C14.3661 58.3966 17.964 59.3381 22.0251 59.5393C25.5278 59.7406 28.9988 59.7082 32.4952 59.7082C35.9979 59.7082 39.4689 59.7406 42.9652 59.5393C47.0263 59.3381 50.6306 58.3901 53.6003 55.3513C56.5763 52.3061 57.4964 48.6245 57.6931 44.469C57.8962 40.8913 57.8581 37.3396 57.8581 33.7554ZM32.4888 47.0727C25.2867 47.0727 19.4742 41.1251 19.4742 33.7554C19.4742 26.3858 25.2867 20.4382 32.4888 20.4382C39.691 20.4382 45.5034 26.3858 45.5034 33.7554C45.5034 41.1251 39.691 47.0727 32.4888 47.0727ZM46.0364 23.0029C44.3549 23.0029 42.997 21.6134 42.997 19.8928C42.997 18.1721 44.3549 16.7826 46.0364 16.7826C47.718 16.7826 49.0759 18.1721 49.0759 19.8928C49.0764 20.3014 48.9981 20.706 48.8456 21.0836C48.693 21.4612 48.4691 21.8042 48.1868 22.0931C47.9045 22.3821 47.5692 22.6111 47.2002 22.7672C46.8312 22.9234 46.4357 23.0035 46.0364 23.0029Z" fill="#A7A2A7"/>
</svg>
