<svg width="49" height="49" viewBox="0 0 49 49" fill="none" xmlns="http://www.w3.org/2000/svg">
<path d="M45.0808 5.84535C44.5121 5.37226 43.8257 5.06222 43.0948 4.94825C42.3638 4.83429 41.6157 4.92065 40.9299 5.19816L5.13234 19.6502C4.367 19.9652 3.71552 20.5055 3.26434 21.1993C2.81317 21.8932 2.58362 22.7078 2.60616 23.5351C2.62869 24.3625 2.90225 25.1634 3.39053 25.8316C3.8788 26.4999 4.55872 27.0039 5.34008 27.2768L12.5811 29.7956L16.6161 43.1431C16.6714 43.3212 16.7514 43.4906 16.8538 43.6465C16.8698 43.6704 16.8917 43.6864 16.9077 43.7124C17.0254 43.8762 17.1676 44.0211 17.3292 44.1418C17.3743 44.1772 17.421 44.2105 17.469 44.2417C17.6582 44.3673 17.8677 44.4592 18.0883 44.5134L18.1142 44.5154L18.1262 44.5214C18.2597 44.5482 18.3956 44.5616 18.5317 44.5613L18.5677 44.5553C18.7722 44.5519 18.9751 44.5169 19.1689 44.4515C19.2149 44.4355 19.2528 44.4115 19.2968 44.3915C19.4418 44.3321 19.5792 44.2556 19.7063 44.1638C19.8074 44.0779 19.9086 43.992 20.0099 43.9061L25.4072 37.9475L33.4572 44.1838C34.1658 44.7357 35.038 45.0358 35.9361 45.0367C36.8774 45.0356 37.7897 44.7109 38.52 44.117C39.2503 43.5231 39.7542 42.6961 39.9471 41.7748L46.4651 9.78047C46.6125 9.06068 46.5616 8.31436 46.3177 7.62126C46.0739 6.92816 45.6464 6.31432 45.0808 5.84535ZM19.3227 30.4308C19.0461 30.7069 18.8571 31.0585 18.7794 31.4416L18.1602 34.4459L16.5941 29.2663L24.714 25.0375L19.3227 30.4308ZM35.9062 41.0257L26.392 33.6549C25.9939 33.3477 25.4946 33.2017 24.9938 33.2461C24.4929 33.2906 24.0271 33.5221 23.6893 33.8946L21.9595 35.8022L22.5707 32.8319L36.7191 18.6834C37.0548 18.3457 37.2588 17.8991 37.2943 17.4242C37.3298 16.9494 37.1945 16.4774 36.9128 16.0935C36.6311 15.7096 36.2215 15.4389 35.7578 15.3304C35.2941 15.2218 34.8069 15.2824 34.384 15.5014L14.0792 26.0723L6.63847 23.3496L42.5519 8.98546L35.9062 41.0257Z" fill="#626262"/>
</svg>
