<svg width="71" height="71" viewBox="0 0 71 71" fill="none" xmlns="http://www.w3.org/2000/svg">
<path d="M20.6591 11.8809C18.2915 11.8901 16.0234 12.8347 14.3492 14.5089C12.6751 16.1831 11.7304 18.4511 11.7212 20.8188V51.114C11.7304 53.4816 12.6751 55.7496 14.3492 57.4238C16.0234 59.098 18.2915 60.0426 20.6591 60.0519H50.9543C53.3219 60.0426 55.59 59.098 57.2642 57.4238C58.9383 55.7496 59.883 53.4816 59.8922 51.114V20.8188C59.883 18.4511 58.9383 16.1831 57.2642 14.5089C55.59 12.8347 53.3219 11.8901 50.9543 11.8809H20.6591ZM20.6591 16.26H50.9543C53.4942 16.26 55.513 18.2788 55.513 20.8188V51.114C55.513 53.6539 53.4942 55.6727 50.9543 55.6727H20.6591C20.0594 55.6765 19.4649 55.5611 18.9101 55.3334C18.3553 55.1056 17.8512 54.77 17.4272 54.3459C17.0031 53.9218 16.6674 53.4178 16.4397 52.863C16.2119 52.3082 16.0966 51.7137 16.1004 51.114V20.8188C16.1004 18.2788 18.1192 16.26 20.6591 16.26ZM35.1914 27.7116C33.5821 27.6963 32.2136 27.7116 31.445 28.0882C30.9305 28.3378 30.5385 28.9006 30.7772 28.9268C31.0772 28.9706 31.7516 29.1151 32.1129 29.6034C32.5727 30.2274 32.5573 31.6397 32.5573 31.6397C32.5573 31.6397 32.8135 35.5219 31.9311 36.0102C31.3246 36.343 30.4947 35.6664 28.6993 32.5791C27.784 30.9894 27.0921 29.2356 27.0921 29.2356C27.0921 29.2356 26.9607 28.9093 26.7243 28.7385C26.4331 28.5261 26.0302 28.4561 26.0302 28.4561L21.7451 28.4823C21.7451 28.4823 21.1036 28.5086 20.8737 28.7823C20.6591 29.0385 20.8562 29.5421 20.8562 29.5421C20.8562 29.5421 24.2084 37.3852 28.0052 41.3374C31.4866 44.9656 35.4388 44.7247 35.4388 44.7247H37.2343C37.2343 44.7247 37.7729 44.6656 38.0466 44.3744C38.305 44.1007 38.2963 43.5861 38.2963 43.5861C38.2963 43.5861 38.2612 41.1842 39.3735 40.8251C40.4771 40.4813 41.8784 43.1504 43.3761 44.1773C44.5147 44.9546 45.3774 44.7838 45.3774 44.7838L49.3822 44.7247C49.3822 44.7247 51.4688 44.5955 50.477 42.9446C50.4003 42.8176 49.9033 41.7316 47.5101 39.5069C44.9942 37.1816 45.3292 37.5582 48.3552 33.5293C50.1945 31.0748 50.9302 29.5771 50.6981 28.9268C50.4791 28.3203 49.126 28.4823 49.126 28.4823L44.6176 28.5086C44.6176 28.5086 44.2848 28.4648 44.0374 28.6115C43.8672 28.7379 43.7317 28.905 43.6432 29.0976C43.6432 29.0976 42.9251 30.996 41.9748 32.6141C39.9735 36.0167 39.1611 36.205 38.8371 35.9926C38.0751 35.4956 38.2634 34.0067 38.2634 32.9557C38.2634 29.645 38.767 28.2765 37.289 27.9196C36.8008 27.7992 36.4417 27.7226 35.1936 27.7116H35.1914Z" fill="#626262"/>
</svg>
