<svg width="60" height="60" viewBox="0 0 60 60" fill="none" xmlns="http://www.w3.org/2000/svg">
<path d="M29.9794 5.30288C16.556 5.30288 5.61575 16.2432 5.61575 29.6665C5.61575 33.9689 6.74665 38.1483 8.86095 41.836L5.41907 54.4726L18.3261 51.0799C21.8909 53.0221 25.8983 54.0547 29.9794 54.0547C43.4027 54.0547 54.343 43.1144 54.343 29.6911C54.343 23.1761 51.8107 17.0545 47.2134 12.4571C44.9594 10.1803 42.2747 8.37517 39.3158 7.14687C36.3569 5.91857 33.1831 5.29172 29.9794 5.30288ZM30.004 9.40856C35.4126 9.40856 40.4771 11.5229 44.3124 15.3581C46.1946 17.2397 47.6869 19.4744 48.7036 21.934C49.7203 24.3935 50.2415 27.0296 50.2373 29.6911C50.2373 40.8526 41.1409 49.9244 29.9794 49.9244C26.3408 49.9244 22.776 48.9656 19.6783 47.0972L18.9408 46.6792L11.2703 48.6952L13.3108 41.2214L12.8191 40.4347C10.7883 37.2108 9.71408 33.4767 9.72142 29.6665C9.74601 18.505 18.8178 9.40856 30.004 9.40856ZM21.3501 18.4066C20.9567 18.4066 20.2929 18.5541 19.7275 19.1688C19.1866 19.7834 17.5886 21.2831 17.5886 24.2578C17.5886 27.2572 19.7766 30.1336 20.0471 30.5516C20.3913 30.9695 24.374 37.1157 30.4956 39.7217C31.9462 40.3855 33.0771 40.7543 33.9621 41.0247C35.4126 41.4918 36.7402 41.4181 37.7974 41.2706C38.9774 41.0985 41.3867 39.7955 41.903 38.3695C42.4193 36.9436 42.4193 35.739 42.2718 35.4685C42.0997 35.2227 41.7064 35.0752 41.0917 34.8047C40.4771 34.4606 37.4778 32.9855 36.9369 32.7888C36.3714 32.5921 36.0272 32.4938 35.5601 33.0838C35.1668 33.6984 33.9867 35.0752 33.6425 35.4685C33.2737 35.8865 32.9296 35.9356 32.3395 35.6406C31.7003 35.321 29.7335 34.6818 27.4225 32.6167C25.6033 30.9941 24.3986 29.0027 24.0298 28.3881C23.7348 27.798 24.0052 27.4293 24.3003 27.1588C24.5707 26.8884 24.964 26.4459 25.2099 26.0771C25.5295 25.7329 25.6278 25.4625 25.8245 25.0691C26.0212 24.6512 25.9229 24.307 25.7753 24.012C25.6278 23.7415 24.3986 20.693 23.8823 19.4884C23.3906 18.3083 22.8989 18.4558 22.5056 18.4312C22.1614 18.4312 21.768 18.4066 21.3501 18.4066Z" fill="#626262"/>
</svg>
