<svg width="55" height="55" viewBox="0 0 55 55" fill="none" xmlns="http://www.w3.org/2000/svg">
<path d="M16.125 0.416534H38.875C47.5417 0.416534 54.5834 7.4582 54.5834 16.1249V38.8749C54.5834 43.041 52.9284 47.0365 49.9825 49.9823C47.0366 52.9282 43.0411 54.5832 38.875 54.5832H16.125C7.45835 54.5832 0.416687 47.5415 0.416687 38.8749V16.1249C0.416687 11.9588 2.07167 7.96328 5.01755 5.0174C7.96344 2.07152 11.9589 0.416534 16.125 0.416534ZM15.5834 5.8332C12.9975 5.8332 10.5175 6.86043 8.68906 8.68891C6.86058 10.5174 5.83335 12.9973 5.83335 15.5832V39.4165C5.83335 44.8061 10.1938 49.1665 15.5834 49.1665H39.4167C42.0025 49.1665 44.4825 48.1393 46.311 46.3108C48.1395 44.4823 49.1667 42.0024 49.1667 39.4165V15.5832C49.1667 10.1936 44.8063 5.8332 39.4167 5.8332H15.5834ZM41.7188 9.8957C42.6166 9.8957 43.4777 10.2524 44.1126 10.8873C44.7475 11.5222 45.1042 12.3833 45.1042 13.2811C45.1042 14.179 44.7475 15.0401 44.1126 15.675C43.4777 16.3099 42.6166 16.6665 41.7188 16.6665C40.8209 16.6665 39.9598 16.3099 39.3249 15.675C38.69 15.0401 38.3334 14.179 38.3334 13.2811C38.3334 12.3833 38.69 11.5222 39.3249 10.8873C39.9598 10.2524 40.8209 9.8957 41.7188 9.8957ZM27.5 13.9582C31.0915 13.9582 34.5359 15.3849 37.0754 17.9245C39.615 20.464 41.0417 23.9084 41.0417 27.4999C41.0417 31.0913 39.615 34.5357 37.0754 37.0753C34.5359 39.6148 31.0915 41.0415 27.5 41.0415C23.9085 41.0415 20.4642 39.6148 17.9246 37.0753C15.3851 34.5357 13.9584 31.0913 13.9584 27.4999C13.9584 23.9084 15.3851 20.464 17.9246 17.9245C20.4642 15.3849 23.9085 13.9582 27.5 13.9582ZM27.5 19.3749C25.3451 19.3749 23.2785 20.2309 21.7548 21.7546C20.231 23.2784 19.375 25.345 19.375 27.4999C19.375 29.6548 20.231 31.7214 21.7548 33.2451C23.2785 34.7688 25.3451 35.6249 27.5 35.6249C29.6549 35.6249 31.7215 34.7688 33.2453 33.2451C34.769 31.7214 35.625 29.6548 35.625 27.4999C35.625 25.345 34.769 23.2784 33.2453 21.7546C31.7215 20.2309 29.6549 19.3749 27.5 19.3749Z" fill="#626262"/>
</svg>
