<svg width="54" height="54" viewBox="0 0 54 54" fill="none" xmlns="http://www.w3.org/2000/svg">
<path d="M10.5697 0.875C8.00162 0.885007 5.54154 1.90963 3.72558 3.72558C1.90963 5.54154 0.885007 8.00162 0.875 10.5697V43.4302C0.885007 45.9984 1.90963 48.4585 3.72558 50.2744C5.54154 52.0904 8.00162 53.115 10.5697 53.125H43.4302C45.9984 53.115 48.4585 52.0904 50.2744 50.2744C52.0904 48.4585 53.115 45.9984 53.125 43.4302V10.5697C53.115 8.00162 52.0904 5.54154 50.2744 3.72558C48.4585 1.90963 45.9984 0.885007 43.4302 0.875H10.5697ZM10.5697 5.625H43.4302C46.1852 5.625 48.375 7.81475 48.375 10.5697V43.4302C48.375 46.1852 46.1852 48.375 43.4302 48.375H10.5697C9.91925 48.3791 9.27441 48.254 8.67263 48.007C8.07086 47.7599 7.52412 47.3958 7.06414 46.9359C6.60416 46.4759 6.24009 45.9291 5.99304 45.3274C5.746 44.7256 5.6209 44.0807 5.625 43.4302V10.5697C5.625 7.81475 7.81475 5.625 10.5697 5.625ZM26.3326 18.0462C24.587 18.0296 23.1026 18.0463 22.269 18.4548C21.7109 18.7255 21.2857 19.3359 21.5446 19.3644C21.87 19.4119 22.6015 19.5686 22.9934 20.0982C23.4921 20.7751 23.4755 22.307 23.4755 22.307C23.4755 22.307 23.7534 26.5179 22.7962 27.0475C22.1384 27.4085 21.2382 26.6746 19.2907 23.3259C18.298 21.6016 17.5475 19.6992 17.5475 19.6992C17.5475 19.6992 17.405 19.3454 17.1485 19.1601C16.8326 18.9298 16.3956 18.8537 16.3956 18.8537L11.7478 18.8822C11.7478 18.8822 11.0519 18.9107 10.8025 19.2076C10.5698 19.4855 10.7835 20.0317 10.7835 20.0317C10.7835 20.0317 14.4196 28.539 18.5379 32.8259C22.3141 36.7612 26.601 36.5 26.601 36.5H28.5485C28.5485 36.5 29.1328 36.4359 29.4296 36.12C29.7099 35.8231 29.7004 35.265 29.7004 35.265C29.7004 35.265 29.6624 32.6596 30.8689 32.2701C32.0659 31.8972 33.5859 34.7924 35.2104 35.9062C36.4454 36.7494 37.3811 36.5641 37.3811 36.5641L41.725 36.5C41.725 36.5 43.9884 36.3599 42.9125 34.5691C42.8294 34.4314 42.2902 33.2534 39.6944 30.8404C36.9655 28.3181 37.3289 28.7266 40.6111 24.3566C42.6061 21.6943 43.4041 20.0697 43.1524 19.3644C42.9149 18.7065 41.4471 18.8822 41.4471 18.8822L36.557 18.9107C36.557 18.9107 36.196 18.8632 35.9276 19.0224C35.7431 19.1594 35.5961 19.3408 35.5001 19.5496C35.5001 19.5496 34.7211 21.6087 33.6904 23.3639C31.5196 27.0546 30.6385 27.2589 30.287 27.0285C29.4605 26.4894 29.6647 24.8744 29.6647 23.7344C29.6647 20.1434 30.211 18.659 28.6079 18.2719C28.0783 18.1412 27.6888 18.0581 26.335 18.0462H26.3326Z" fill="#626262"/>
</svg>
