<svg width="48" height="44" viewBox="0 0 48 44" fill="none" xmlns="http://www.w3.org/2000/svg">
<path d="M46.2409 1.26022C45.624 0.747057 44.8795 0.410769 44.0867 0.287152C43.2939 0.163534 42.4823 0.257214 41.7385 0.558217L2.9097 16.234C2.07955 16.5757 1.37291 17.1617 0.883531 17.9143C0.394151 18.6669 0.145166 19.5505 0.169611 20.4479C0.194055 21.3453 0.490772 22.214 1.0204 22.9389C1.55002 23.6637 2.28752 24.2104 3.13504 24.5064L10.9892 27.2386L15.3659 41.7162C15.4259 41.9094 15.5126 42.0932 15.6237 42.2622C15.641 42.2882 15.6649 42.3056 15.6822 42.3337C15.8099 42.5115 15.9641 42.6686 16.1394 42.7996C16.1883 42.8379 16.2389 42.874 16.291 42.9079C16.4963 43.0441 16.7235 43.1438 16.9627 43.2025L16.9909 43.2047L17.0039 43.2112C17.1487 43.2403 17.296 43.2548 17.4437 43.2546L17.4827 43.2481C17.7046 43.2444 17.9246 43.2063 18.1349 43.1354C18.1847 43.118 18.2259 43.0921 18.2735 43.0704C18.4308 43.0059 18.5799 42.923 18.7177 42.8234C18.8274 42.7302 18.9372 42.637 19.047 42.5439L24.9014 36.0807L33.633 42.8451C34.4016 43.4437 35.3477 43.7692 36.3219 43.7702C37.3429 43.769 38.3324 43.4168 39.1246 42.7726C39.9167 42.1284 40.4633 41.2314 40.6725 40.2321L47.7424 5.52855C47.9023 4.74781 47.847 3.93829 47.5826 3.1865C47.3181 2.43471 46.8544 1.7689 46.2409 1.26022ZM18.3017 27.9276C18.0016 28.227 17.7966 28.6084 17.7124 29.0239L17.0407 32.2826L15.342 26.6644L24.1495 22.0776L18.3017 27.9276ZM36.2894 39.4196L25.9695 31.4246C25.5377 31.0913 24.9962 30.9331 24.4529 30.9812C23.9096 31.0294 23.4045 31.2805 23.038 31.6845L21.1617 33.7537L21.8247 30.5319L37.1712 15.1854C37.5353 14.819 37.7566 14.3347 37.7951 13.8196C37.8336 13.3045 37.6869 12.7926 37.3813 12.3761C37.0757 11.9597 36.6314 11.6662 36.1284 11.5484C35.6255 11.4306 35.0971 11.4964 34.6384 11.7339L12.6142 23.1999L4.54337 20.2467L43.4979 4.66622L36.2894 39.4196Z" fill="#626262"/>
</svg>
