<svg width="54" height="54" viewBox="0 0 54 54" fill="none" xmlns="http://www.w3.org/2000/svg">
<path d="M27.1067 0.333426C12.5467 0.333426 0.680009 12.2001 0.680009 26.7601C0.680009 31.4268 1.90668 35.9601 4.20001 39.9601L0.466675 53.6668L14.4667 49.9868C18.3333 52.0934 22.68 53.2134 27.1067 53.2134C41.6667 53.2134 53.5333 41.3468 53.5333 26.7868C53.5333 19.7201 50.7867 13.0801 45.8 8.09343C43.3552 5.62389 40.4432 3.66587 37.2337 2.33356C34.0243 1.00125 30.5817 0.32132 27.1067 0.333426ZM27.1333 4.78676C33 4.78676 38.4933 7.08009 42.6533 11.2401C44.695 13.281 46.3136 15.7049 47.4164 18.3728C48.5193 21.0406 49.0846 23.9 49.08 26.7868C49.08 38.8934 39.2133 48.7334 27.1067 48.7334C23.16 48.7334 19.2933 47.6934 15.9333 45.6668L15.1333 45.2134L6.81334 47.4001L9.02668 39.2934L8.49334 38.4401C6.29052 34.9432 5.12537 30.893 5.13334 26.7601C5.16001 14.6534 15 4.78676 27.1333 4.78676ZM17.7467 14.5468C17.32 14.5468 16.6 14.7068 15.9867 15.3734C15.4 16.0401 13.6667 17.6668 13.6667 20.8934C13.6667 24.1468 16.04 27.2668 16.3333 27.7201C16.7067 28.1734 21.0267 34.8401 27.6667 37.6668C29.24 38.3868 30.4667 38.7868 31.4267 39.0801C33 39.5868 34.44 39.5068 35.5867 39.3468C36.8667 39.1601 39.48 37.7468 40.04 36.2001C40.6 34.6534 40.6 33.3468 40.44 33.0534C40.2533 32.7868 39.8267 32.6268 39.16 32.3334C38.4933 31.9601 35.24 30.3601 34.6533 30.1468C34.04 29.9334 33.6667 29.8268 33.16 30.4668C32.7333 31.1334 31.4533 32.6268 31.08 33.0534C30.68 33.5068 30.3067 33.5601 29.6667 33.2401C28.9733 32.8934 26.84 32.2001 24.3333 29.9601C22.36 28.2001 21.0533 26.0401 20.6533 25.3734C20.3333 24.7334 20.6267 24.3334 20.9467 24.0401C21.24 23.7468 21.6667 23.2668 21.9333 22.8668C22.28 22.4934 22.3867 22.2001 22.6 21.7734C22.8133 21.3201 22.7067 20.9468 22.5467 20.6268C22.3867 20.3334 21.0533 17.0268 20.4933 15.7201C19.96 14.4401 19.4267 14.6001 19 14.5734C18.6267 14.5734 18.2 14.5468 17.7467 14.5468Z" fill="#626262"/>
</svg>
