<?xml version="1.0" standalone="no"?>
<!DOCTYPE svg PUBLIC "-//W3C//DTD SVG 20010904//EN"
 "http://www.w3.org/TR/2001/REC-SVG-20010904/DTD/svg10.dtd">
<svg version="1.0" xmlns="http://www.w3.org/2000/svg"
 width="300.000000pt" height="300.000000pt" viewBox="0 0 300.000000 300.000000"
 preserveAspectRatio="xMidYMid meet">
<metadata>
Created by potrace 1.11, written by Peter Selinger 2001-2013
</metadata>
<g transform="translate(0.000000,300.000000) scale(0.100000,-0.100000)"
fill="#000000" stroke="none">
<path d="M1253 2970 c-40 -29 -76 -93 -87 -152 -2 -14 -15 -57 -28 -94 -15
-43 -23 -86 -22 -114 3 -46 -6 -89 -33 -150 -25 -59 -75 -154 -95 -182 -11
-16 -16 -28 -11 -28 4 0 3 -4 -3 -8 -15 -10 -106 -157 -127 -207 -46 -107 -45
-243 4 -315 l16 -24 1 37 c3 67 33 111 138 198 40 32 96 89 125 126 30 38 56
70 60 73 3 3 23 40 43 82 l36 78 34 -38 c40 -44 48 -84 31 -160 -18 -79 -44
-98 -154 -119 -58 -10 -151 -81 -151 -115 0 -9 -90 -227 -131 -315 -10 -24
-19 -45 -19 -47 0 -3 -14 -29 -31 -58 -18 -29 -32 -59 -32 -65 0 -7 -4 -13 -8
-13 -4 0 -15 -13 -26 -29 -10 -16 -57 -69 -104 -118 -47 -49 -116 -134 -154
-189 -79 -115 -118 -160 -160 -181 -34 -18 -40 -23 -108 -89 -28 -27 -46 -52
-43 -60 4 -10 -2 -14 -19 -14 -48 0 -41 -23 18 -59 43 -26 46 -38 13 -47 -14
-3 -27 -12 -30 -20 -4 -11 5 -14 37 -15 23 -1 47 0 52 1 29 6 41 9 51 9 20 2
61 51 68 81 7 38 18 38 34 1 23 -52 144 -118 267 -146 11 -2 88 -22 170 -45
83 -22 161 -43 175 -46 29 -6 40 -9 60 -17 13 -5 47 -14 85 -22 6 -2 28 -6 50
-9 42 -7 73 -26 42 -26 -9 0 -17 -4 -17 -9 0 -5 -13 -12 -30 -16 -46 -10 -79
-42 -111 -111 l-30 -64 28 -57 c35 -70 62 -81 81 -31 8 22 30 45 64 68 29 19
87 60 129 91 85 62 123 77 146 57 8 -7 23 -17 32 -23 121 -73 194 -130 207
-161 11 -25 20 -34 30 -30 9 3 17 6 20 6 2 0 15 23 30 51 17 34 24 60 19 76
-11 47 -65 130 -91 142 -15 6 -25 14 -22 16 3 4 530 158 578 170 35 8 127 57
156 82 34 30 67 87 57 97 -4 3 -1 6 5 6 9 0 22 -25 27 -50 5 -25 40 -69 62
-78 52 -20 153 -19 153 2 0 13 -33 29 -55 27 -5 -1 13 19 40 44 39 36 47 48
36 54 -8 5 -23 8 -34 6 -12 -3 -17 0 -14 8 3 7 0 20 -7 28 -17 22 -126 103
-169 125 -42 21 -73 52 -161 164 -33 41 -78 92 -100 113 -110 104 -173 166
-191 188 -27 32 -85 127 -85 138 0 5 -3 11 -7 13 -5 2 -19 26 -33 53 -13 28
-32 61 -41 75 -9 14 -17 28 -18 33 0 4 -16 38 -35 76 -19 37 -44 98 -56 134
-32 98 -51 113 -173 137 -92 18 -132 74 -140 199 -3 38 1 49 30 80 18 20 43
55 55 79 21 38 38 54 38 34 0 -5 7 -17 16 -28 8 -10 13 -13 9 -6 -8 16 5 15
29 -3 28 -21 42 -18 22 4 -14 16 -19 42 -21 123 -4 125 -11 187 -32 253 -16
54 -72 155 -85 155 -4 0 -8 5 -8 11 0 7 11 9 27 6 l27 -5 -25 19 c-13 10 -30
17 -36 14 -7 -2 -13 -1 -13 4 0 8 -2 9 -73 17 -29 4 -51 12 -54 20 -10 25 -79
54 -131 54 -38 0 -57 -6 -89 -30z m-123 -1441 c0 -5 13 -37 29 -71 27 -60 35
-81 41 -103 1 -5 6 -20 11 -32 19 -52 10 -168 -21 -258 -10 -29 -16 -56 -13
-59 4 -3 0 -6 -7 -6 -7 0 -11 -2 -8 -5 3 -3 -3 -33 -12 -68 -20 -72 -18 -72
-170 -42 -43 9 -338 13 -380 5 -48 -9 -50 0 -7 33 46 36 169 159 250 251 69
78 177 234 177 255 0 6 3 11 8 11 4 0 23 27 42 59 26 45 38 57 47 49 7 -6 13
-14 13 -19z m714 -49 c25 -28 46 -53 46 -56 0 -10 84 -124 92 -124 4 0 8 -5 8
-12 0 -21 135 -167 231 -248 13 -12 38 -33 54 -48 17 -15 49 -42 73 -61 23
-18 42 -36 42 -40 0 -4 -55 -7 -122 -7 -149 1 -273 -10 -338 -29 -40 -12 -92
-16 -86 -7 3 6 -12 54 -35 109 -87 209 -90 218 -94 322 -2 49 2 83 12 102 8
17 16 35 17 42 1 7 10 29 19 51 9 21 17 42 17 47 0 19 19 7 64 -41z"/>
</g>
</svg>
